<svg aria-hidden="true" style="position: absolute; width: 0; height: 0; overflow: hidden;" version="1.1" xmlns="http://www.w3.org/2000/svg" xmlns:xlink="http://www.w3.org/1999/xlink">
<defs>
<symbol id="icon-logo" viewBox="0 0 32 32">
<path fill="#fff" style="fill: var(--color1, #fff)" d="M9.136 17.233c-0.030-0.048-0.071-0.072-0.122-0.072-0.063 0-0.117 0.028-0.161 0.084-0.165 0.206-0.37 0.373-0.603 0.491l-0.010 0.005c-0.242 0.122-0.456 0.184-0.643 0.184-0.246 0-0.369-0.1-0.369-0.301 0-0.176 0.078-0.354 0.235-0.533s0.428-0.418 0.813-0.719c0.143-0.112 0.214-0.261 0.214-0.445 0-0.080-0.020-0.14-0.060-0.18s-0.093-0.060-0.161-0.060c-0.052 0-0.135 0.024-0.25 0.072-0.016 0.004-0.051 0.016-0.104 0.036s-0.114 0.038-0.182 0.054c-0.061 0.015-0.13 0.024-0.202 0.024 0 0 0 0 0 0v0c-0.139 0-0.241-0.023-0.306-0.069s-0.12-0.117-0.164-0.214c-0.071-0.165-0.196-0.247-0.375-0.247-0.25 0-0.413 0.134-0.488 0.403-0.083 0.301-0.164 0.543-0.241 0.725-0.083 0.197-0.165 0.36-0.258 0.517l0.011-0.020c-0.086 0.149-0.215 0.322-0.383 0.516-0.083 0.084-0.159 0.151-0.227 0.199-0.125 0.088-0.253 0.133-0.384 0.133-0.139 0-0.247-0.042-0.325-0.126s-0.116-0.211-0.116-0.379c0-0.144 0.020-0.317 0.060-0.517l0.363-1.721c0.067-0.297 0.109-0.585 0.125-0.866l0.601 0.078c0.024 0.004 0.057 0.006 0.101 0.006 0.119 0 0.209-0.031 0.268-0.093s0.090-0.153 0.090-0.274c0-0.080-0.027-0.151-0.080-0.213s-0.142-0.103-0.265-0.124c-0.747-0.121-1.509-0.181-2.287-0.181-0.75 0-1.363 0.048-1.837 0.144s-0.828 0.248-1.063 0.454c-0.234 0.206-0.351 0.48-0.351 0.821 0 0.161 0.026 0.304 0.077 0.43s0.117 0.224 0.196 0.292c0.044 0.040 0.099 0.060 0.167 0.060 0.095 0 0.186-0.033 0.271-0.1s0.128-0.139 0.128-0.22c0-0.044-0.010-0.080-0.030-0.108-0.067-0.104-0.101-0.226-0.101-0.367 0-0.172 0.082-0.309 0.247-0.409s0.431-0.172 0.801-0.216l-0.059 0.289c0.006-0.097-0.056 0.213-0.116 0.523l-0.063 0.392c-0.032 0.133-0.090 0.464-0.143 0.796l-0.023 0.178c-0.040 0.298-0.075 0.515-0.116 0.731l0.014-0.093c-0.040 0.245-0.074 0.478-0.104 0.701s-0.044 0.382-0.044 0.478c0 0.105 0.036 0.189 0.107 0.253s0.173 0.096 0.303 0.096c0.123 0 0.228-0.031 0.316-0.093s0.135-0.151 0.143-0.268c0.016-0.221 0.048-0.51 0.095-0.869s0.093-0.675 0.137-0.948c0.207-1.279 0.348-2.032 0.499-2.781l-0.094 0.561c0.095-0.004 0.25-0.006 0.464-0.006 0.358 0 0.666 0.006 0.929 0.018-0.016 0.205-0.079 0.584-0.191 1.137l-0.22 1.101c-0.094 0.474-0.142 0.817-0.142 1.029 0 0.341 0.093 0.613 0.28 0.815s0.449 0.304 0.786 0.304c0.226 0 0.44-0.058 0.64-0.175s0.402-0.301 0.604-0.553c0.006-0.007 0.011-0.016 0.016-0.025 0.047-0.052 0.093-0.103 0.136-0.153 0.125-0.146 0.259-0.336 0.402-0.569 0.158-0.257 0.288-0.61 0.387-1.059 0.052 0.137 0.124 0.239 0.217 0.307s0.203 0.102 0.33 0.102c0.107 0 0.196-0.014 0.268-0.042-0.333 0.233-0.589 0.452-0.765 0.659s-0.265 0.446-0.265 0.719c0 0.281 0.088 0.492 0.265 0.635s0.434 0.214 0.771 0.214c0.282 0 0.564-0.069 0.846-0.207 0.283-0.139 0.518-0.336 0.699-0.576l0.004-0.005c0.075-0.1 0.113-0.225 0.113-0.373 0-0.085-0.015-0.151-0.044-0.199z"></path>
<path fill="#fff" style="fill: var(--color1, #fff)" d="M11.469 17.294c0.030 0.048 0.045 0.114 0.045 0.198 0 0.161-0.038 0.285-0.113 0.373-0.147 0.18-0.354 0.347-0.622 0.5s-0.555 0.229-0.86 0.229c-0.417 0-0.74-0.114-0.971-0.343s-0.345-0.542-0.345-0.939c0-0.277 0.057-0.534 0.173-0.773s0.275-0.428 0.479-0.569c0.205-0.14 0.435-0.211 0.694-0.211 0.23 0 0.415 0.069 0.554 0.207s0.209 0.326 0.209 0.562c0 0.277-0.098 0.515-0.295 0.713s-0.529 0.356-0.998 0.473c0.099 0.184 0.288 0.277 0.566 0.277 0.178 0 0.382-0.063 0.61-0.189 0.233-0.13 0.429-0.296 0.59-0.492l0.003-0.004c0.048-0.056 0.101-0.084 0.161-0.084 0.051-0.001 0.091 0.024 0.121 0.072zM9.109 15.257c-0.072-0.070-0.107-0.179-0.107-0.328 0-0.16 0.043-0.286 0.128-0.376s0.2-0.135 0.342-0.135c0.127 0 0.226 0.035 0.297 0.105s0.107 0.18 0.107 0.328c0 0.161-0.043 0.286-0.128 0.376s-0.2 0.135-0.342 0.135c-0.127 0-0.226-0.035-0.297-0.105zM9.475 16.608c-0.101 0.173-0.152 0.381-0.152 0.626v0.012c0.234-0.056 0.419-0.14 0.554-0.253s0.202-0.243 0.202-0.391c0-0.076-0.021-0.137-0.062-0.184s-0.098-0.069-0.17-0.069c-0.147 0.001-0.271 0.087-0.372 0.259zM10.347 15.257c-0.071-0.070-0.107-0.179-0.107-0.328 0-0.16 0.043-0.286 0.128-0.376s0.2-0.135 0.342-0.135c0.127 0 0.226 0.035 0.297 0.105s0.107 0.18 0.107 0.328c0 0.161-0.043 0.286-0.128 0.376s-0.2 0.135-0.342 0.135c-0.127 0-0.226-0.035-0.297-0.105z"></path>
<path fill="#fff" style="fill: var(--color1, #fff)" d="M14.666 17.294c0.029 0.048 0.044 0.114 0.044 0.198 0 0.161-0.038 0.285-0.113 0.373-0.131 0.156-0.245 0.282-0.342 0.376s-0.216 0.176-0.358 0.247c-0.141 0.070-0.301 0.105-0.479 0.105-0.234 0-0.401-0.093-0.5-0.28s-0.149-0.468-0.149-0.845c0-0.188 0.008-0.371 0.024-0.548h-0.012c-0.159 0.534-0.354 0.945-0.587 1.233s-0.497 0.433-0.795 0.433c-0.202 0-0.361-0.074-0.476-0.222s-0.173-0.335-0.173-0.56c0-0.201 0.046-0.363 0.137-0.487s0.22-0.186 0.387-0.186c0.076 0 0.132 0.016 0.17 0.048s0.053 0.076 0.044 0.133c-0.032 0.193-0.048 0.325-0.048 0.397 0 0.144 0.036 0.217 0.107 0.217 0.040 0 0.085-0.030 0.134-0.090s0.134-0.207 0.253-0.439c0.072-0.133 0.167-0.329 0.256-0.528l0.027-0.068c0.060-0.126 0.142-0.32 0.217-0.518l0.024-0.072c0.063-0.169 0.137-0.284 0.22-0.346s0.202-0.093 0.357-0.093c0.151 0 0.262 0.030 0.334 0.090s0.107 0.158 0.107 0.295l-0.012 0.445c-0.016 0.337-0.024 0.58-0.024 0.728 0 0.421 0.085 0.631 0.256 0.631 0.072 0 0.142-0.034 0.211-0.102s0.177-0.193 0.325-0.373l0.149-0.18c0.048-0.056 0.101-0.084 0.161-0.084 0.052 0 0.093 0.024 0.123 0.072z"></path>
<path fill="#fff" style="fill: var(--color1, #fff)" d="M14.404 18.353c-0.062-0.16-0.092-0.417-0.092-0.77 0-0.521 0.073-1.017 0.22-1.486 0.036-0.116 0.094-0.202 0.176-0.256s0.196-0.081 0.342-0.081c0.079 0 0.135 0.010 0.167 0.030s0.048 0.058 0.048 0.114c0 0.064-0.030 0.209-0.090 0.433-0.008 0.028-0.025 0.092-0.051 0.193-0.024 0.090-0.049 0.209-0.068 0.33l-0.003 0.022c-0.021 0.126-0.037 0.279-0.044 0.433l-0 0.009c0.143-0.561 0.324-0.962 0.542-1.203s0.482-0.361 0.792-0.361c0.206 0 0.368 0.065 0.485 0.195s0.176 0.298 0.176 0.502c0 0.169-0.037 0.311-0.11 0.427s-0.169 0.175-0.289 0.175c-0.076 0-0.136-0.018-0.182-0.054s-0.068-0.086-0.068-0.151c0-0.028 0.004-0.060 0.012-0.096s0.014-0.062 0.018-0.078c0.018-0.050 0.029-0.108 0.030-0.168v-0c0-0.108-0.052-0.162-0.154-0.162-0.080 0-0.157 0.041-0.232 0.123s-0.136 0.193-0.182 0.331c-0.046 0.138-0.068 0.288-0.068 0.448 0 0.216 0.049 0.39 0.149 0.52s0.242 0.196 0.429 0.196c0.147 0 0.278-0.049 0.393-0.147s0.274-0.27 0.476-0.515c0.048-0.056 0.101-0.084 0.161-0.084 0.052 0 0.092 0.024 0.122 0.073s0.044 0.114 0.044 0.198c0 0.161-0.038 0.285-0.113 0.373-0.179 0.217-0.358 0.392-0.536 0.526s-0.381 0.202-0.607 0.202c-0.187 0-0.356-0.041-0.509-0.124s-0.277-0.182-0.372-0.298c-0.095-0.116-0.157-0.229-0.185-0.337-0.072 0.299-0.103 0.412-0.134 0.525l0.045-0.188c-0.044 0.161-0.094 0.271-0.152 0.331s-0.146 0.090-0.265 0.090c-0.152 0-0.258-0.080-0.32-0.24zM26.318 17.294c0.030 0.048 0.044 0.114 0.044 0.198 0 0.161-0.038 0.285-0.113 0.373-0.182 0.212-0.37 0.387-0.563 0.524s-0.412 0.204-0.658 0.204c-0.191 0-0.331-0.075-0.422-0.226s-0.135-0.358-0.131-0.622c-0.067 0.273-0.169 0.483-0.304 0.629s-0.28 0.22-0.435 0.22c-0.361 0-0.542-0.217-0.542-0.65 0-0.076 0.006-0.156 0.018-0.241-0.119 0.289-0.246 0.51-0.381 0.662s-0.292 0.229-0.47 0.229c-0.179 0-0.325-0.083-0.438-0.249s-0.17-0.374-0.17-0.623c0-0.301 0.020-0.576 0.059-0.827s0.105-0.516 0.196-0.797c0.039-0.12 0.095-0.207 0.167-0.258s0.185-0.078 0.339-0.078c0.087 0 0.148 0.014 0.182 0.042s0.051 0.070 0.051 0.126c0 0.032-0.022 0.14-0.066 0.325-0.027 0.091-0.060 0.227-0.088 0.364l-0.007 0.039c-0.079 0.421-0.119 0.702-0.119 0.842 0 0.084 0.010 0.143 0.030 0.178s0.052 0.051 0.095 0.051c0.131 0 0.259-0.149 0.384-0.448s0.261-0.693 0.408-1.182c0.036-0.12 0.077-0.202 0.125-0.244s0.135-0.063 0.262-0.063c0.104 0 0.175 0.017 0.215 0.051s0.059 0.093 0.059 0.178c0 0.080-0.028 0.275-0.083 0.584-0.080 0.465-0.119 0.764-0.119 0.897 0 0.084 0.010 0.143 0.030 0.178s0.052 0.051 0.095 0.051c0.059 0 0.134-0.060 0.223-0.18s0.185-0.303 0.286-0.548c0.101-0.244 0.2-0.546 0.295-0.902 0.032-0.12 0.081-0.207 0.146-0.258s0.163-0.078 0.295-0.078c0.091 0 0.155 0.011 0.191 0.033s0.053 0.063 0.053 0.124c0 0.101-0.049 0.375-0.149 0.824-0.111 0.513-0.167 0.83-0.167 0.951 0 0.076 0.016 0.136 0.048 0.178s0.073 0.063 0.125 0.063c0.080 0 0.173-0.049 0.283-0.147s0.255-0.258 0.438-0.478c0.048-0.056 0.101-0.084 0.161-0.084 0.051-0.003 0.092 0.021 0.122 0.070z"></path>
<path fill="#fff" style="fill: var(--color1, #fff)" d="M29.035 16.794c0.028 0.052 0.042 0.119 0.042 0.198 0 0.193-0.058 0.307-0.173 0.343-0.238 0.084-0.5 0.133-0.786 0.144-0.076 0.337-0.224 0.607-0.446 0.809s-0.474 0.304-0.756 0.304c-0.238 0-0.441-0.058-0.61-0.175s-0.297-0.271-0.384-0.463c-0.087-0.193-0.131-0.401-0.131-0.626 0-0.305 0.057-0.576 0.173-0.815s0.274-0.425 0.476-0.56 0.426-0.202 0.673-0.202c0.301 0 0.545 0.105 0.729 0.316s0.292 0.47 0.325 0.779c0.187-0.012 0.409-0.052 0.667-0.12 0.032-0.008 0.059-0.012 0.083-0.012 0.052 0.001 0.092 0.027 0.119 0.079zM27.294 17.799c0.093-0.105 0.156-0.254 0.187-0.451-0.121-0.083-0.218-0.195-0.281-0.326l-0.002-0.005c-0.062-0.126-0.098-0.273-0.098-0.43 0-0.001 0-0.003 0-0.004v0c0-0.064 0.006-0.128 0.018-0.193h-0.029c-0.159 0-0.291 0.078-0.396 0.232s-0.158 0.372-0.158 0.653c0 0.221 0.043 0.389 0.128 0.506s0.186 0.175 0.301 0.175c0.127 0 0.237-0.052 0.331-0.157z"></path>
<path fill="#fff" style="fill: var(--color1, #fff)" d="M28.669 18.353c-0.062-0.16-0.092-0.417-0.092-0.77 0-0.521 0.073-1.017 0.22-1.486 0.036-0.116 0.094-0.202 0.176-0.256s0.196-0.082 0.342-0.082c0.080 0 0.135 0.010 0.167 0.030s0.048 0.058 0.048 0.114c0 0.064-0.029 0.208-0.090 0.433-0.021 0.074-0.054 0.216-0.084 0.359l-0.011 0.063c-0.024 0.121-0.044 0.268-0.059 0.445 0.131-0.345 0.278-0.626 0.44-0.842s0.322-0.371 0.479-0.463c0.157-0.092 0.301-0.138 0.431-0.138 0.258 0 0.387 0.13 0.387 0.391 0 0.156-0.044 0.439-0.131 0.848-0.076 0.349-0.113 0.58-0.113 0.692 0 0.161 0.057 0.241 0.173 0.241 0.080 0 0.173-0.049 0.283-0.147s0.255-0.258 0.438-0.478c0.048-0.056 0.101-0.084 0.161-0.084 0.052 0 0.092 0.024 0.122 0.072s0.044 0.114 0.044 0.198c0 0.161-0.038 0.285-0.113 0.373-0.171 0.212-0.354 0.387-0.551 0.524s-0.42 0.204-0.67 0.204c-0.202 0-0.355-0.059-0.459-0.178s-0.154-0.29-0.154-0.515c0-0.112 0.028-0.313 0.083-0.602 0.052-0.253 0.077-0.427 0.077-0.524 0-0.064-0.022-0.096-0.066-0.096-0.052 0-0.124 0.067-0.217 0.202s-0.188 0.312-0.286 0.533c-0.089 0.196-0.169 0.428-0.229 0.669l-0.006 0.029c-0.044 0.189-0.095 0.316-0.152 0.382s-0.148 0.099-0.271 0.099c-0.15-0.001-0.256-0.081-0.317-0.241zM20.108 15.594c-0.439-0.054-0.771 0.253-1 0.451-0.304 0.263-0.598 0.899-0.503 1.357 0.074 0.358 0.382 0.687 0.735 0.769 0.469 0.108 0.827-0.071 1.022-0.193 0.148-0.093 0.638-0.487 0.636-0.833-0.011-1.711-0.302-1.478-0.891-1.55zM20.462 16.373c-0.13 0-0.235-0.136-0.235-0.303s0.105-0.303 0.235-0.303 0.235 0.136 0.235 0.303c0 0.167-0.105 0.303-0.235 0.303zM19.552 15.112c0.051-0.35-0.179-0.788-0.573-0.804-0.459-0.019-0.632 0.567-0.53 0.834 0.143 0.375 0.498 0.792 0.573 0.769 0.116-0.036 0.486-0.494 0.531-0.799zM18.461 15.582c-0.222-0.047-0.525 0.017-0.535 0.344-0.011 0.361 0.384 0.397 0.513 0.377 0.184-0.028 0.367-0.177 0.491-0.319 0.006-0.007 0.009-0.015 0.009-0.025s-0.004-0.020-0.011-0.027v0c-0.073-0.079-0.306-0.317-0.466-0.351z"></path>
<path fill="#fff" style="fill: var(--color1, #fff)" d="M19.15 17.923c-0.317-0.218-0.498-0.556-0.543-0.857-0.006 0.021-0.012 0.042-0.018 0.063-0.059 0.241-0.068 0.761 0.025 0.85 0.066 0.063 0.543 0.221 0.834 0.23 0.071 0.002 0.132 0 0.189-0.005-0.152-0.066-0.286-0.142-0.488-0.28zM19.76 17.331c-0.416-0.374-0.493-0.526-0.567-0.938-0.032-0.174 0.001-0.332 0.020-0.446-0.123 0.108-0.229 0.222-0.316 0.344-0.016 0.093-0.167 0.523 0.243 1.047 0.418 0.535 0.908 0.665 1.089 0.718 0.084-0.046 0.165-0.098 0.243-0.16 0.056-0.044 0.109-0.090 0.158-0.137-0.152-0.031-0.543-0.134-0.871-0.429z"></path>
<path fill="#fff" style="fill: var(--color1, #fff)" d="M21.18 16.556c-0.009-0.233-0.086-0.442-0.23-0.628-0.139-0.179-0.305-0.296-0.497-0.35s-0.389-0.053-0.59 0.003c-0.101 0.028-0.197 0.066-0.291 0.115-0.022 0.154-0.062 0.652 0.248 1.013 0.319 0.372 0.916 0.669 1.093 0.719 0.037-0.056 0.071-0.112 0.101-0.17 0.12-0.235 0.176-0.47 0.166-0.702zM20.566 16.129c-0.046 0.026-0.101 0.002-0.144-0.030-0.061-0.044-0.115-0.014 0.049-0.14 0.025-0.019 0.105-0.010 0.131 0.037 0.008 0.014 0.012 0.030 0.012 0.048 0 0.036-0.020 0.068-0.049 0.084l-0 0zM21.281 18.573s-0.278-0.266-0.116-0.869c0.077-0.285 0.359-0.509 0.359-0.509s-0.31 0.076-0.534 0.376c-0.265 0.354-0.309 0.626-0.323 0.704s-0.099 0.030-0.031-0.164c0.029-0.083 0.053-0.143 0.053-0.143s-0.2 0.107-0.275 0.243c-0.086 0.156-0.096 0.208-0.096 0.258s0.004-0.089-0.079-0.186c-0.046-0.053-0.158-0.080-0.158-0.080s0.077 0.082 0.079 0.157c0.004 0.159-0.088 0.179-0.088 0.179s-0.082 0.030-0.109-0.076c-0.036-0.142-0.234-0.112-0.234-0.112s0.076 0.029 0.061 0.135c-0.014 0.107-0.146 0.076-0.146 0.076l1.348 0.008h0.287v0.001z"></path>
<path fill="#fff" style="fill: var(--color1, #fff)" d="M18.014 18.573s0.278-0.266 0.116-0.869c-0.077-0.285-0.359-0.509-0.359-0.509s0.31 0.076 0.534 0.376c0.265 0.354 0.309 0.626 0.323 0.704s0.099 0.030 0.031-0.164c-0.029-0.083-0.053-0.143-0.053-0.143s0.2 0.107 0.275 0.243c0.086 0.156 0.096 0.208 0.096 0.258s-0.005-0.089 0.079-0.186c0.046-0.053 0.158-0.080 0.158-0.080s-0.077 0.082-0.079 0.157c-0.004 0.159 0.088 0.179 0.088 0.179s0.082 0.030 0.109-0.076c0.036-0.142 0.234-0.112 0.234-0.112s-0.076 0.029-0.061 0.135c0.014 0.107 0.146 0.076 0.146 0.076l-1.348 0.008h-0.287v0.001z"></path>
</symbol>
<symbol id="icon-shop" viewBox="0 0 32 32">
<path fill="#fff" style="fill: var(--color1, #fff)" d="M8.696 0h14.609c4.61 0 8.348 3.737 8.348 8.348v14.609c0 4.61-3.737 8.348-8.348 8.348h-14.609c-4.61 0-8.348-3.737-8.348-8.348v-14.609c0-4.61 3.737-8.348 8.348-8.348z"></path>
<path d="M12.087 25.334c-0.362 0-0.714 0.117-1.014 0.337-0.302 0.226-0.534 0.531-0.668 0.884l-0.005 0.014c-0.088 0.228-0.139 0.491-0.139 0.767 0 0.138 0.013 0.272 0.037 0.403l-0.002-0.014c0.072 0.398 0.249 0.747 0.502 1.026l-0.002-0.002c0.255 0.28 0.581 0.47 0.935 0.547s0.721 0.038 1.055-0.113c0.334-0.152 0.619-0.408 0.819-0.737 0.193-0.315 0.307-0.696 0.307-1.105 0-0.002 0-0.004 0-0.006v0c0-0.004 0-0.009 0-0.014 0-0.539-0.203-1.031-0.537-1.403l0.002 0.002c-0.319-0.356-0.778-0.581-1.29-0.586h-0.001zM24.87 21.334h-14.609c-0.323 0-0.633-0.141-0.861-0.391-0.221-0.247-0.357-0.574-0.357-0.934 0-0.003 0-0.006 0-0.009v0c0-0.353 0.128-0.693 0.357-0.943s0.538-0.391 0.861-0.391h10.337c0.84-0.007 1.607-0.312 2.202-0.814l-0.005 0.004c0.633-0.523 1.094-1.257 1.315-2.091l1.93-7.4c0.051-0.198 0.061-0.407 0.026-0.609-0.036-0.212-0.115-0.4-0.228-0.563l0.003 0.005c-0.111-0.162-0.255-0.293-0.422-0.387l-0.006-0.003c-0.157-0.088-0.343-0.14-0.542-0.141h-14.925c-0.253-0.777-0.717-1.45-1.331-1.927-0.573-0.454-1.304-0.732-2.1-0.739h-1.122c-0.323 0-0.633 0.141-0.861 0.39-0.229 0.25-0.357 0.589-0.357 0.943s0.128 0.693 0.357 0.943c0.228 0.25 0.538 0.39 0.861 0.39h1.121c0.264 0.001 0.522 0.096 0.733 0.27s0.365 0.419 0.438 0.697l0.189 0.726v0.007l1.998 7.656c-0.93 0.109-1.786 0.604-2.392 1.384-0.606 0.779-0.916 1.784-0.866 2.807s0.456 1.985 1.135 2.69c0.679 0.704 1.579 1.096 2.514 1.096h14.609c0.323 0 0.633-0.141 0.861-0.39 0.229-0.25 0.357-0.589 0.357-0.943s-0.128-0.692-0.357-0.943c-0.212-0.237-0.519-0.387-0.86-0.39h-0.001zM23.256 9.334l-1.486 5.698c-0.073 0.278-0.227 0.524-0.438 0.698-0.197 0.166-0.453 0.268-0.733 0.27h-8.201l-1.738-6.666h12.598zM21.826 25.334c-0.362 0-0.714 0.117-1.014 0.337-0.302 0.226-0.534 0.531-0.668 0.884l-0.005 0.014c-0.088 0.228-0.139 0.491-0.139 0.767 0 0.138 0.013 0.272 0.037 0.403l-0.002-0.014c0.072 0.398 0.249 0.747 0.502 1.026l-0.002-0.002c0.255 0.28 0.581 0.47 0.935 0.547s0.721 0.038 1.055-0.113c0.334-0.152 0.619-0.408 0.819-0.737 0.193-0.315 0.308-0.696 0.308-1.105 0-0.002 0-0.004 0-0.006v0c0-0.004 0-0.009 0-0.014 0-0.539-0.203-1.031-0.537-1.403l0.002 0.002c-0.319-0.356-0.778-0.581-1.29-0.586h-0.001z"></path>
</symbol>
<symbol id="icon-menu" viewBox="0 0 32 32">
<path fill="#fff" style="fill: var(--color1, #fff)" d="M5.818 0h20.364c3.213 0 5.818 2.605 5.818 5.818v20.364c0 3.213-2.605 5.818-5.818 5.818h-20.364c-3.213 0-5.818-2.605-5.818-5.818v-20.364c0-3.213 2.605-5.818 5.818-5.818z"></path>
<path d="M6.788 8.727h17.939c0.803 0 1.455 0.651 1.455 1.455s-0.651 1.455-1.455 1.455h-17.939c-0.803 0-1.455-0.651-1.455-1.455s0.651-1.455 1.455-1.455z"></path>
<path d="M6.788 14.545h14.061c0.803 0 1.455 0.651 1.455 1.455s-0.651 1.455-1.455 1.455h-14.061c-0.803 0-1.455-0.651-1.455-1.455s0.651-1.455 1.455-1.455z"></path>
<path d="M6.788 20.364h17.939c0.803 0 1.455 0.651 1.455 1.455s-0.651 1.455-1.455 1.455h-17.939c-0.803 0-1.455-0.651-1.455-1.455s0.651-1.455 1.455-1.455z"></path>
</symbol>
<symbol id="icon-user" viewBox="0 0 32 32">
<path fill="#fff" style="fill: var(--color1, #fff)" d="M8.533 0h14.933c4.713 0 8.533 3.821 8.533 8.533v14.933c0 4.713-3.82 8.533-8.533 8.533h-14.933c-4.713 0-8.533-3.82-8.533-8.533v-14.933c0-4.713 3.821-8.533 8.533-8.533z"></path>
<path d="M19.822 16.444c1.576-1.248 2.578-3.162 2.578-5.309 0-3.731-3.025-6.756-6.756-6.756s-6.756 3.025-6.756 6.756c0 2.148 1.002 4.061 2.564 5.299l0.014 0.011c-3.799 1.552-6.524 5.013-6.998 9.158l-0.005 0.052c-0.006 0.045-0.010 0.098-0.010 0.151 0 0.626 0.507 1.133 1.133 1.133 0.592 0 1.077-0.454 1.128-1.032l0-0.004c0.524-4.522 4.331-8 8.951-8s8.427 3.478 8.947 7.958l0.004 0.042c0.064 0.567 0.541 1.003 1.119 1.003 0.003 0 0.005 0 0.008-0h0.123c0.564-0.067 0.997-0.542 0.997-1.118 0-0.043-0.002-0.085-0.007-0.126l0 0.005c-0.481-4.209-3.222-7.677-6.962-9.194l-0.075-0.027zM15.644 15.644c-2.487 0-4.504-2.016-4.504-4.504s2.016-4.504 4.504-4.504v0c2.487 0 4.504 2.016 4.504 4.504s-2.016 4.504-4.504 4.504v0z"></path>
</symbol>
<symbol id="icon-viber" viewBox="0 0 32 32">
<path fill="#90c1bf" style="fill: var(--color3, #90c1bf)" d="M7.385 0h17.231c4.078 0 7.385 3.306 7.385 7.385v17.231c0 4.078-3.306 7.385-7.385 7.385h-17.231c-4.078 0-7.385-3.306-7.385-7.385v-17.231c0-4.078 3.306-7.385 7.385-7.385z"></path>
<path fill="#fff" style="fill: var(--color1, #fff)" d="M15.383 4.311c-1.975 0.025-6.222 0.349-8.597 2.528-1.767 1.751-2.384 4.339-2.457 7.54-0.060 3.19-0.132 9.178 5.641 10.809v2.484s-0.036 0.994 0.621 1.198c0.809 0.256 1.27-0.508 2.039-1.33l1.434-1.623c3.95 0.329 6.975-0.428 7.324-0.54 0.802-0.257 5.316-0.833 6.054-6.823 0.757-6.186-0.369-10.084-2.4-11.847h-0.012c-0.613-0.565-3.077-2.36-8.582-2.38 0 0-0.409-0.028-1.066-0.016v0.001zM15.45 6.051c0.561-0.004 0.902 0.020 0.902 0.020 4.658 0.012 6.882 1.415 7.407 1.887 1.711 1.466 2.592 4.98 1.947 10.145-0.613 5.008-4.275 5.325-4.953 5.541-0.288 0.092-2.953 0.75-6.31 0.533 0 0-2.5 3.017-3.282 3.794-0.124 0.137-0.268 0.177-0.361 0.156-0.132-0.032-0.172-0.196-0.165-0.421l0.024-4.122c-4.896-1.354-4.607-6.463-4.555-9.131 0.060-2.668 0.56-4.852 2.051-6.33 2.007-1.815 5.614-2.059 7.292-2.071h0.002zM15.82 8.719c-0.001 0-0.002 0-0.003 0-0.168 0-0.305 0.136-0.305 0.305 0 0 0 0 0 0v0c0 0.172 0.14 0.308 0.308 0.308 0.033-0.001 0.072-0.001 0.111-0.001 1.565 0 2.985 0.622 4.026 1.633l-0.001-0.001c1.118 1.086 1.662 2.545 1.682 4.451 0 0.169 0.136 0.309 0.309 0.309v-0.012c0 0 0 0 0 0 0.169 0 0.306-0.136 0.308-0.304v-0c0.004-0.083 0.006-0.179 0.006-0.277 0-1.791-0.711-3.417-1.866-4.609l0.002 0.002c-1.218-1.19-2.761-1.803-4.576-1.803v0.001zM11.766 9.424c-0.042-0.007-0.091-0.010-0.14-0.010-0.181 0-0.35 0.050-0.494 0.136l0.004-0.002h-0.016c-0.452 0.268-0.839 0.589-1.169 0.961l-0.004 0.005c-0.281 0.324-0.433 0.653-0.474 0.969-0.023 0.188-0.007 0.377 0.049 0.557l0.020 0.012c0.351 1.022 0.768 1.902 1.269 2.726l-0.035-0.062c0.688 1.238 1.477 2.306 2.386 3.259l-0.006-0.006 0.028 0.040 0.043 0.033 0.028 0.032 0.032 0.028c0.95 0.905 2.021 1.698 3.182 2.35l0.080 0.041c1.354 0.737 2.175 1.086 2.669 1.231v0.007c0.144 0.043 0.276 0.063 0.408 0.063 0.438-0.033 0.83-0.211 1.132-0.486l-0.002 0.001c0.375-0.334 0.692-0.723 0.942-1.155l0.012-0.023v-0.007c0.236-0.445 0.156-0.866-0.185-1.151-0.65-0.57-1.371-1.093-2.138-1.545l-0.066-0.036c-0.524-0.285-1.058-0.113-1.274 0.176l-0.46 0.581c-0.236 0.288-0.666 0.248-0.666 0.248l-0.012 0.008c-3.201-0.818-4.054-4.058-4.054-4.058s-0.041-0.441 0.256-0.665l0.577-0.465c0.276-0.225 0.469-0.757 0.172-1.282-0.485-0.834-1.007-1.555-1.592-2.219l0.013 0.015c-0.128-0.157-0.307-0.268-0.511-0.308l-0.006-0.001 0.002 0.002zM16.353 10.338c-0.409 0-0.409 0.617 0.004 0.617 1.067 0.018 2.026 0.466 2.715 1.177l0.001 0.001c0.576 0.634 0.929 1.48 0.929 2.408 0 0.080-0.003 0.16-0.008 0.239l0.001-0.011c0.003 0.168 0.14 0.304 0.308 0.305h0l0.012 0.016c0.17-0.001 0.308-0.138 0.309-0.308v-0c0.027-1.222-0.353-2.248-1.098-3.070-0.75-0.822-1.794-1.282-3.129-1.374h-0.044zM16.857 11.996c-0.42-0.012-0.437 0.617-0.020 0.629 1.014 0.052 1.506 0.565 1.571 1.618 0.002 0.167 0.138 0.301 0.305 0.302h0.012c0.165-0.007 0.297-0.143 0.297-0.31 0-0.007-0-0.014-0.001-0.020l0 0.001c-0.072-1.374-0.822-2.148-2.151-2.219h-0.012v-0.001z"></path>
</symbol>
<symbol id="icon-uil_sync-exclamation" viewBox="0 0 32 32">
<path d="M15.054 20.946c0.242 0.243 0.576 0.394 0.946 0.394 0.736 0 1.333-0.597 1.333-1.333 0-0.002 0-0.005-0-0.007v0c-0.006-0.368-0.152-0.7-0.388-0.947l0 0.001c-0.241-0.238-0.572-0.384-0.937-0.384-0.186 0-0.364 0.038-0.525 0.107l0.009-0.003c-0.171 0.067-0.317 0.162-0.44 0.28l0.001-0c-0.244 0.256-0.382 0.594-0.387 0.947 0 0.002-0 0.004-0 0.007 0 0.367 0.148 0.699 0.387 0.94l-0-0zM26.546 20.679h-6.039c-0.736 0-1.333 0.597-1.333 1.333s0.597 1.333 1.333 1.333v0h3.2c-1.945 2.030-4.679 3.292-7.707 3.292-5.881 0-10.65-4.759-10.667-10.637v-0.002c0-0.736-0.597-1.333-1.333-1.333s-1.333 0.597-1.333 1.333v0c0.020 7.349 5.982 13.298 13.333 13.298 3.557 0 6.788-1.393 9.179-3.663l-0.006 0.005v2.359c0 0.736 0.597 1.333 1.333 1.333s1.333-0.597 1.333-1.333v0-6c-0.007-0.717-0.579-1.299-1.292-1.32l-0.002-0zM16 2.667c-3.562 0.011-6.793 1.416-9.178 3.699l0.005-0.005v-2.361c0-0.736-0.597-1.333-1.333-1.333s-1.333 0.597-1.333 1.333v0 6c0 0.736 0.597 1.333 1.333 1.333v0h6c0.736 0 1.333-0.597 1.333-1.333s-0.597-1.333-1.333-1.333v0h-3.2c1.945-2.030 4.679-3.292 7.707-3.292 5.877 0 10.643 4.752 10.667 10.623v0.002c0 0.736 0.597 1.333 1.333 1.333s1.333-0.597 1.333-1.333v0c0-7.364-5.97-13.333-13.333-13.333v0zM16 17.333c0.736 0 1.333-0.597 1.333-1.333v0-4c0-0.736-0.597-1.333-1.333-1.333s-1.333 0.597-1.333 1.333v0 4c0 0.736 0.597 1.333 1.333 1.333v0z"></path>
</symbol>
<symbol id="icon-uil_search-plus" viewBox="0 0 32 32">
<path d="M20 13.333h-4v-4c0-0.736-0.597-1.333-1.333-1.333s-1.333 0.597-1.333 1.333v0 4h-4c-0.736 0-1.333 0.597-1.333 1.333s0.597 1.333 1.333 1.333v0h4v4c0 0.736 0.597 1.333 1.333 1.333s1.333-0.597 1.333-1.333v0-4h4c0.736 0 1.333-0.597 1.333-1.333s-0.597-1.333-1.333-1.333v0zM28.946 27.054l-4.946-4.907c1.645-2.037 2.641-4.657 2.641-7.511 0-6.627-5.373-12-12-12s-12 5.373-12 12c0 6.627 5.373 12 12 12 2.851 0 5.469-0.994 7.528-2.655l-0.023 0.018 4.907 4.907c0.241 0.244 0.576 0.395 0.947 0.395s0.705-0.151 0.947-0.395l0-0c0.232-0.24 0.375-0.567 0.375-0.927s-0.143-0.687-0.375-0.927l0 0zM14.667 24c-5.155 0-9.333-4.179-9.333-9.333s4.179-9.333 9.333-9.333v0c5.155 0 9.333 4.179 9.333 9.333s-4.179 9.333-9.333 9.333v0z"></path>
</symbol>
<symbol id="icon-uil_search-minus" viewBox="0 0 32 32">
<path d="M28.946 27.054l-4.946-4.907c1.645-2.037 2.641-4.657 2.641-7.511 0-6.627-5.373-12-12-12s-12 5.373-12 12c0 6.627 5.373 12 12 12 2.851 0 5.469-0.994 7.528-2.655l-0.023 0.018 4.907 4.907c0.241 0.244 0.576 0.395 0.947 0.395s0.705-0.151 0.947-0.395l0-0c0.232-0.24 0.375-0.567 0.375-0.927s-0.143-0.687-0.375-0.927l0 0zM14.667 24c-5.155 0-9.333-4.179-9.333-9.333s4.179-9.333 9.333-9.333v0c5.155 0 9.333 4.179 9.333 9.333s-4.179 9.333-9.333 9.333v0zM20 13.333h-10.667c-0.736 0-1.333 0.597-1.333 1.333s0.597 1.333 1.333 1.333v0h10.667c0.736 0 1.333-0.597 1.333-1.333s-0.597-1.333-1.333-1.333v0z"></path>
</symbol>
<symbol id="icon-uil_search" viewBox="0 0 32 32">
<path d="M28.946 27.054l-4.946-4.907c1.645-2.037 2.641-4.657 2.641-7.511 0-6.627-5.373-12-12-12s-12 5.373-12 12c0 6.627 5.373 12 12 12 2.851 0 5.469-0.994 7.528-2.655l-0.023 0.018 4.907 4.907c0.241 0.244 0.576 0.395 0.947 0.395s0.705-0.151 0.947-0.395l0-0c0.232-0.24 0.375-0.567 0.375-0.927s-0.143-0.687-0.375-0.927l0 0zM14.667 24c-5.155 0-9.333-4.179-9.333-9.333s4.179-9.333 9.333-9.333v0c5.155 0 9.333 4.179 9.333 9.333s-4.179 9.333-9.333 9.333v0z"></path>
</symbol>
<symbol id="icon-uil_outgoing-call" viewBox="0 0 32 32">
<path d="M25.92 17.333c-0.293 0-0.599-0.093-0.893-0.16-0.685-0.152-1.269-0.331-1.833-0.55l0.086 0.029c-0.271-0.102-0.585-0.161-0.912-0.161-1.046 0-1.951 0.602-2.388 1.479l-0.007 0.015-0.293 0.601c-1.353-0.761-2.518-1.646-3.548-2.668l0.001 0.001c-1.021-1.028-1.906-2.194-2.625-3.466l-0.042-0.081 0.56-0.373c0.892-0.444 1.494-1.349 1.494-2.395 0-0.327-0.059-0.641-0.167-0.93l0.006 0.018c-0.183-0.471-0.362-1.055-0.501-1.654l-0.018-0.093c-0.057-0.236-0.113-0.544-0.155-0.856l-0.005-0.050c-0.336-1.897-1.973-3.32-3.942-3.32-0.020 0-0.041 0-0.061 0l0.003-0h-4c-0.011-0-0.024-0-0.037-0-2.209 0-4 1.791-4 4 0 0.193 0.014 0.382 0.040 0.568l-0.002-0.021c1.502 11.493 10.524 20.487 21.901 21.935l0.126 0.013h0.507c0.002 0 0.004 0 0.006 0 1.023 0 1.957-0.384 2.665-1.017l-0.004 0.003c0.82-0.736 1.333-1.799 1.333-2.982 0-0.007-0-0.013-0-0.020v0.001-4c-0.035-1.93-1.432-3.524-3.269-3.863l-0.025-0.004zM26.587 25.333c0 0 0 0.001 0 0.001 0 0.605-0.403 1.116-0.955 1.279l-0.009 0.002c-0.189 0.058-0.387 0.075-0.582 0.051-10.272-1.355-18.308-9.422-19.601-19.594l-0.012-0.112c-0.005-0.047-0.009-0.102-0.009-0.158 0-0.357 0.129-0.685 0.343-0.938l-0.002 0.002c0.245-0.278 0.603-0.453 1-0.453h4c0.009-0 0.019-0 0.030-0 0.637 0 1.17 0.447 1.302 1.044l0.002 0.009c0.053 0.365 0.119 0.725 0.199 1.081 0.155 0.703 0.359 1.393 0.613 2.066l-1.867 0.867c-0.462 0.216-0.777 0.677-0.777 1.212 0 0.204 0.046 0.397 0.128 0.57l-0.003-0.008c1.958 4.127 5.206 7.376 9.216 9.283l0.117 0.050c0.324 0.133 0.688 0.133 1.013 0 0.339-0.124 0.607-0.371 0.756-0.685l0.003-0.008 0.827-1.867c0.689 0.245 1.393 0.451 2.107 0.613 0.356 0.080 0.716 0.146 1.081 0.199 0.606 0.134 1.053 0.666 1.053 1.304 0 0.010-0 0.021-0 0.031l0-0.002 0.027 4.16z"></path>
</symbol>
<symbol id="icon-uil_lightbulb-alt" viewBox="0 0 32 32">
<path d="M22.786 3.76c-1.827-1.511-4.194-2.428-6.776-2.428-0.754 0-1.49 0.078-2.201 0.227l0.069-0.012c-4.238 0.878-7.515 4.178-8.348 8.359l-0.011 0.068c-0.119 0.6-0.187 1.29-0.187 1.995 0 2.621 0.937 5.023 2.494 6.889l-0.014-0.017c0.905 1.017 1.473 2.351 1.52 3.817l0 0.010v4c0 2.209 1.791 4 4 4v0h5.333c2.209 0 4-1.791 4-4v0-3.746c0.048-1.63 0.655-3.11 1.635-4.264l-0.008 0.010c1.477-1.815 2.371-4.156 2.371-6.705 0-3.304-1.502-6.257-3.861-8.214l-0.018-0.014v0.027zM20 26.667c0 0.736-0.597 1.333-1.333 1.333v0h-5.333c-0.736 0-1.333-0.597-1.333-1.333v0-1.333h8v1.333zM22.226 17.013c-1.292 1.525-2.114 3.483-2.225 5.63l-0.001 0.023h-2.667v-4c0-0.736-0.597-1.333-1.333-1.333s-1.333 0.597-1.333 1.333v0 4h-2.667c-0.038-2.132-0.839-4.069-2.142-5.557l0.009 0.010c-1.156-1.378-1.858-3.17-1.858-5.126 0-3.844 2.711-7.055 6.325-7.824l0.052-0.009c0.485-0.105 1.043-0.164 1.614-0.164 4.418 0 8 3.582 8 8 0 0.002 0 0.003 0 0.005v-0c0 0.012 0 0.027 0 0.042 0 1.893-0.67 3.629-1.785 4.985l0.011-0.014z"></path>
</symbol>
<symbol id="icon-uil_kid" viewBox="0 0 32 32">
<path d="M13.333 13.333c0-0.736-0.597-1.333-1.333-1.333s-1.333 0.597-1.333 1.333v0c0 0.736 0.597 1.333 1.333 1.333s1.333-0.597 1.333-1.333v0zM19.333 18.747c-0.193-0.115-0.425-0.183-0.674-0.183-0.489 0-0.917 0.264-1.149 0.657l-0.003 0.006c-0.304 0.527-0.865 0.875-1.507 0.875s-1.202-0.349-1.502-0.867l-0.004-0.008c-0.235-0.399-0.663-0.663-1.153-0.663-0.249 0-0.481 0.068-0.681 0.187l0.006-0.003c-0.402 0.235-0.668 0.664-0.668 1.155 0 0.242 0.064 0.469 0.177 0.665l-0.003-0.006c0.776 1.333 2.199 2.214 3.827 2.214s3.050-0.881 3.815-2.193l0.011-0.021c0.109-0.189 0.174-0.416 0.174-0.659 0-0.491-0.265-0.92-0.66-1.151l-0.006-0.003zM20 12c-0.736 0-1.333 0.597-1.333 1.333s0.597 1.333 1.333 1.333v0c0.736 0 1.333-0.597 1.333-1.333s-0.597-1.333-1.333-1.333v0zM16 2.667c-7.364 0-13.333 5.97-13.333 13.333s5.97 13.333 13.333 13.333v0c7.364 0 13.333-5.97 13.333-13.333s-5.97-13.333-13.333-13.333v0zM16 26.667c-0.014 0-0.031 0-0.047 0-5.891 0-10.667-4.776-10.667-10.667 0-4.467 2.746-8.293 6.643-9.882l0.071-0.026c-0.007 0.086-0.010 0.186-0.010 0.287s0.004 0.201 0.011 0.3l-0.001-0.013c0 2.209 1.791 4 4 4v0c0.736 0 1.333-0.597 1.333-1.333s-0.597-1.333-1.333-1.333v0c-0.736 0-1.333-0.597-1.333-1.333s0.597-1.333 1.333-1.333v0c5.891 0 10.667 4.776 10.667 10.667s-4.776 10.667-10.667 10.667v0z"></path>
</symbol>
<symbol id="icon-uil_key-skeleton" viewBox="0 0 32 32">
<path d="M28 5.879l0.947-0.933c0.242-0.242 0.392-0.577 0.392-0.947 0-0.739-0.599-1.339-1.339-1.339-0.37 0-0.704 0.15-0.947 0.392v0l-1.867 1.881-3.773 3.773-8.414 8.401c-1.033-0.69-2.304-1.101-3.67-1.101-3.682 0-6.667 2.985-6.667 6.667s2.985 6.667 6.667 6.667c3.682 0 6.667-2.985 6.667-6.667 0-1.368-0.412-2.639-1.119-3.698l0.015 0.024 7.454-7.467 2.827 2.841c0.241 0.239 0.573 0.387 0.94 0.387 0.737 0 1.334-0.597 1.334-1.334 0-0.37-0.151-0.705-0.394-0.947l-2.827-2.827 1.893-1.881 0.933 0.933c0.242 0.243 0.577 0.394 0.947 0.394 0.737 0 1.334-0.597 1.334-1.334 0-0.367-0.148-0.699-0.387-0.94l-0.947-0.947zM9.333 26.667c-2.209 0-4-1.791-4-4s1.791-4 4-4v0c2.209 0 4 1.791 4 4s-1.791 4-4 4v0z"></path>
</symbol>
<symbol id="icon-uil_hourglass" viewBox="0 0 32 32">
<path d="M25.323 28.002h-1.333v-2.221c-0.004-0.804-0.15-1.573-0.414-2.284l0.015 0.046c-0.018-0.046-0.034-0.083-0.052-0.119l0.003 0.007c-0.234-0.63-0.533-1.174-0.898-1.667l0.013 0.018-1.867-2.49c-0.498-0.661-0.798-1.496-0.8-2.401v-1.348c0.004-1.103 0.45-2.102 1.171-2.827l-0 0 0.876-0.877c0.987-0.992 1.661-2.296 1.86-3.751l0.004-0.034c0-0.017 0.011-0.033 0.011-0.053l-0.004-0.017c0.046-0.284 0.075-0.57 0.084-0.858v-3.125h1.333c0.736 0 1.333-0.597 1.333-1.333s-0.597-1.333-1.333-1.333v0h-18.668c-0.736 0-1.333 0.597-1.333 1.333s0.597 1.333 1.333 1.333v0h1.333v3.125c0.009 0.287 0.037 0.573 0.083 0.857l-0.003 0.018c0 0.019 0.009 0.035 0.011 0.053 0.202 1.489 0.875 2.793 1.862 3.785l-0-0 0.875 0.876c0.722 0.725 1.169 1.724 1.173 2.827v1.348c-0.002 0.905-0.302 1.739-0.807 2.41l0.007-0.010-1.867 2.491c-0.353 0.475-0.653 1.019-0.872 1.603l-0.015 0.046c-0.014 0.028-0.031 0.065-0.045 0.103l-0.003 0.009c-0.249 0.665-0.395 1.434-0.4 2.236v2.224h-1.331c-0.736 0-1.333 0.597-1.333 1.333s0.597 1.333 1.333 1.333v0h18.667c0.736 0 1.333-0.597 1.333-1.333s-0.597-1.333-1.333-1.333v0h0.002zM10.656 6.669v-2.667h10.667v2.667h-10.667zM11.827 9.954c-0.183-0.184-0.349-0.387-0.493-0.604l-0.009-0.015h9.329c-0.154 0.232-0.319 0.434-0.503 0.619l-0.877 0.877c-1.007 1.002-1.694 2.326-1.892 3.804l-0.004 0.034h-2.779c-0.202-1.512-0.888-2.836-1.895-3.838l-0-0-0.878-0.877zM13.324 20.891c0.742-0.986 1.222-2.206 1.316-3.534l0.001-0.021h2.697c0.095 1.349 0.576 2.57 1.331 3.572l-0.012-0.017 1.333 1.778h-8l1.333-1.778zM21.324 28.002h-10.667v-2.221c0.003-0.149 0.015-0.298 0.035-0.445h10.594c0.020 0.147 0.032 0.295 0.037 0.445v2.222z"></path>
</symbol>
<symbol id="icon-uil_history" viewBox="0 0 32 32">
<path d="M16 2.667c-3.562 0.010-6.793 1.415-9.178 3.697l0.005-0.005v-2.359c0-0.736-0.597-1.333-1.333-1.333s-1.333 0.597-1.333 1.333v0 6c0 0.736 0.597 1.333 1.333 1.333v0h6c0.736 0 1.333-0.597 1.333-1.333s-0.597-1.333-1.333-1.333v0h-3.2c1.945-2.030 4.679-3.292 7.707-3.292 5.891 0 10.667 4.776 10.667 10.667s-4.776 10.667-10.667 10.667c-5.891 0-10.667-4.776-10.667-10.667 0-0.015 0-0.029 0-0.044v0.002c0-0.736-0.597-1.333-1.333-1.333s-1.333 0.597-1.333 1.333v0c0 7.364 5.97 13.333 13.333 13.333s13.333-5.97 13.333-13.333c0-7.364-5.97-13.333-13.333-13.333v0zM16 10.667c-0.736 0-1.333 0.597-1.333 1.333v0 4c0 0.736 0.597 1.333 1.333 1.333v0h2.667c0.736 0 1.333-0.597 1.333-1.333s-0.597-1.333-1.333-1.333v0h-1.333v-2.667c0-0.736-0.597-1.333-1.333-1.333v0z"></path>
</symbol>
<symbol id="icon-uil_heart" viewBox="0 0 32 32">
<path d="M26.88 6.667c-1.518-1.522-3.618-2.464-5.938-2.464-1.858 0-3.575 0.604-4.965 1.627l0.023-0.016c-1.376-1.034-3.113-1.656-4.995-1.656-4.617 0-8.359 3.743-8.359 8.359 0 2.321 0.946 4.422 2.474 5.936l0.001 0.001 8.281 8.293c0.669 0.658 1.587 1.065 2.6 1.065s1.931-0.407 2.6-1.065l-0 0 8.279-8.293c1.502-1.511 2.43-3.594 2.43-5.893s-0.928-4.382-2.431-5.894l0 0zM25.001 16.613l-8.281 8.279c-0.184 0.186-0.438 0.301-0.72 0.301s-0.536-0.115-0.72-0.301l-0-0-8.279-8.32c-1.009-1.031-1.631-2.443-1.631-4s0.622-2.969 1.632-4.001l-0.001 0.001c1.028-1.015 2.441-1.642 4-1.642s2.972 0.627 4.001 1.642l-0.001-0.001c0.242 0.244 0.577 0.394 0.947 0.394s0.705-0.151 0.947-0.394l0-0c1.028-1.015 2.441-1.642 4-1.642s2.972 0.627 4.001 1.642l-0.001-0.001c1.041 1.036 1.685 2.47 1.685 4.055 0 1.531-0.601 2.921-1.581 3.948l0.002-0.002v0.041z"></path>
</symbol>
<symbol id="icon-uil_fire" viewBox="0 0 32 32">
<path d="M11.291 11.194v0zM24.563 10.944c-0.090-0.087-0.191-0.164-0.3-0.229l-0.008-0.004c-0.194-0.116-0.427-0.184-0.676-0.184-0.517 0-0.966 0.295-1.187 0.725l-0.003 0.008c-0.478 0.93-1.103 1.717-1.853 2.362l-0.010 0.009c0.113-0.61 0.178-1.311 0.178-2.028 0-4.301-2.337-8.056-5.811-10.065l-0.056-0.030c-0.19-0.11-0.417-0.175-0.66-0.175-0.707 0-1.285 0.55-1.331 1.246l-0 0.004c-0.161 2.648-1.4 4.978-3.281 6.578l-0.013 0.011-0.307 0.25c-1.026 0.696-1.901 1.518-2.631 2.459l-0.019 0.026c-1.618 2.024-2.597 4.621-2.597 7.447 0 4.991 3.052 9.268 7.392 11.068l0.079 0.029c0.149 0.062 0.322 0.099 0.503 0.099 0.736 0 1.333-0.597 1.333-1.333 0-0.149-0.024-0.292-0.069-0.426l0.003 0.009c-0.199-0.718-0.313-1.542-0.313-2.393 0-0.369 0.021-0.733 0.063-1.091l-0.004 0.044c1.28 2.379 3.266 4.238 5.676 5.324l0.076 0.031c0.3 0.134 0.64 0.153 0.953 0.051 4.863-1.604 8.31-6.106 8.31-11.413 0-3.274-1.312-6.242-3.439-8.406l0.002 0.002zM19.357 28.052c-2.33-1.198-4.059-3.287-4.755-5.805l-0.015-0.065c-0.103-0.423-0.183-0.853-0.24-1.285-0.093-0.653-0.649-1.15-1.321-1.15-0.49 0-0.919 0.265-1.151 0.659l-0.003 0.006c-1.013 1.718-1.611 3.785-1.611 5.992 0 0.105 0.001 0.21 0.004 0.315l-0-0.015c-2.198-1.72-3.597-4.373-3.597-7.353 0-2.203 0.765-4.228 2.044-5.822l-0.014 0.018c0.587-0.758 1.275-1.402 2.051-1.925l0.031-0.020c0.038-0.024 0.071-0.048 0.102-0.074l-0.002 0.001s0.395-0.326 0.409-0.334c1.857-1.577 3.218-3.688 3.848-6.094l0.019-0.083c1.775 1.646 2.883 3.99 2.883 6.593 0 1.533-0.384 2.976-1.061 4.239l0.024-0.048c-0.095 0.179-0.151 0.392-0.151 0.617 0 0.736 0.597 1.333 1.333 1.333 0.142 0 0.278-0.022 0.406-0.063l-0.009 0.003c2.098-0.671 3.854-1.921 5.132-3.561l0.018-0.023c1.006 1.467 1.607 3.281 1.607 5.235 0 3.948-2.451 7.323-5.914 8.687l-0.063 0.022z"></path>
</symbol>
<symbol id="icon-uil_favorite" viewBox="0 0 32 32">
<path d="M29.333 12.894c-0.173-0.492-0.613-0.847-1.142-0.893l-0.005-0-7.587-1.106-3.399-6.894c-0.221-0.449-0.675-0.752-1.2-0.752s-0.979 0.303-1.197 0.744l-0.003 0.008-3.401 6.88-7.586 1.12c-0.51 0.074-0.921 0.427-1.078 0.897l-0.003 0.009c-0.037 0.116-0.058 0.25-0.058 0.389 0 0.369 0.15 0.703 0.392 0.944l0 0 5.506 5.333-1.333 7.573c-0.019 0.084-0.030 0.181-0.030 0.28 0 0.736 0.597 1.333 1.333 1.333 0.242 0 0.468-0.064 0.663-0.176l-0.007 0.003 6.8-3.559 6.8 3.559c0.187 0.106 0.398 0.16 0.613 0.16 0.283 0.001 0.558-0.087 0.786-0.253 0.339-0.245 0.557-0.639 0.557-1.084 0-0.088-0.009-0.174-0.025-0.258l0.001 0.008-1.333-7.573 5.507-5.333c0.289-0.246 0.471-0.61 0.471-1.017 0-0.122-0.016-0.24-0.047-0.352l0.002 0.009zM21.133 18.227c-0.249 0.243-0.404 0.581-0.404 0.956 0 0.077 0.006 0.152 0.019 0.225l-0.001-0.008 0.96 5.6-5.013-2.667c-0.183-0.092-0.398-0.147-0.627-0.147s-0.444 0.054-0.635 0.15l0.008-0.004-5.013 2.667 0.96-5.6c0.011-0.065 0.018-0.14 0.018-0.216 0-0.375-0.155-0.714-0.405-0.957l-4-4 5.614-0.814c0.447-0.064 0.818-0.342 1.010-0.725l0.004-0.008 2.373-5.081 2.507 5.093c0.195 0.391 0.566 0.67 1.006 0.733l0.007 0.001 5.613 0.813-4 3.987z"></path>
</symbol>
<symbol id="icon-uil_clock" viewBox="0 0 32 32">
<path d="M20.13 16.846l-2.797-1.615v-5.898c0-0.736-0.597-1.333-1.333-1.333s-1.333 0.597-1.333 1.333v0 6.667c0 0.491 0.265 0.919 0.66 1.151l0.006 0.003 3.463 2c0.194 0.116 0.427 0.184 0.676 0.184 0.736 0 1.332-0.596 1.332-1.332 0-0.125-0.017-0.246-0.049-0.36l0.002 0.009c-0.096-0.349-0.322-0.635-0.621-0.807l-0.006-0.003zM16 2.667c-7.364 0-13.333 5.97-13.333 13.333s5.97 13.333 13.333 13.333c7.364 0 13.333-5.97 13.333-13.333v0c-0.009-7.36-5.973-13.325-13.333-13.333h-0.001zM16 26.667c-5.891 0-10.667-4.776-10.667-10.667s4.776-10.667 10.667-10.667c5.891 0 10.667 4.776 10.667 10.667v0c-0.007 5.888-4.779 10.659-10.666 10.667h-0.001z"></path>
</symbol>
<symbol id="icon-uil_check" viewBox="0 0 32 32">
<path d="M24.947 9.614c-0.242-0.244-0.577-0.394-0.947-0.394s-0.705 0.151-0.947 0.394l-0 0-9.934 9.947-4.173-4.187c-0.245-0.237-0.579-0.383-0.947-0.383-0.752 0-1.362 0.61-1.362 1.362 0 0.384 0.159 0.732 0.415 0.979l5.12 5.12c0.242 0.243 0.577 0.394 0.947 0.394s0.705-0.151 0.947-0.394l10.88-10.88c0.264-0.245 0.428-0.593 0.428-0.98s-0.164-0.735-0.427-0.979l-0.001-0.001z"></path>
</symbol>
<symbol id="icon-uil_basketball" viewBox="0 0 32 32">
<path d="M16 2.667c-4.679 0.005-8.793 2.419-11.169 6.069l-0.031 0.052c-1.311 2.029-2.091 4.507-2.091 7.168 0 7.364 5.97 13.333 13.333 13.333 3.152 0 6.048-1.094 8.331-2.922l-0.026 0.020c3.044-2.464 4.974-6.2 4.974-10.387 0-7.359-5.962-13.326-13.32-13.333h-0.001zM18.667 5.68c3.757 0.996 6.658 3.896 7.637 7.579l0.017 0.074c-2.229 0.063-4.405 0.697-6.32 1.84-0.961-1.086-2.008-2.053-3.146-2.907l-0.054-0.039c1.127-1.874 1.814-4.125 1.866-6.532l0-0.015zM16 5.333c-0.005 2.006-0.569 3.88-1.546 5.473l0.026-0.046c-0.199-0.107-0.386-0.227-0.587-0.32-1.573-0.849-3.396-1.526-5.317-1.936l-0.136-0.024c1.931-1.942 4.605-3.145 7.559-3.147h0zM6.667 10.88c2.091 0.29 4.117 0.94 5.987 1.92l0.173 0.107c-1.913 1.911-4.555 3.093-7.473 3.093-0.007 0-0.014 0-0.021-0h0.001c0.008-1.88 0.501-3.644 1.361-5.174l-0.028 0.054zM13.333 26.32c-3.757-0.996-6.658-3.896-7.636-7.579l-0.017-0.074c3.74-0.085 7.083-1.713 9.431-4.27l0.009-0.010c0.964 0.713 1.857 1.516 2.667 2.4-2.64 2.362-4.33 5.738-4.453 9.511l-0.001 0.021zM16 26.667c0.006-3.079 1.316-5.851 3.407-7.794l0.007-0.006c0.080 0.107 0.16 0.201 0.227 0.307 1.060 1.6 1.902 3.457 2.424 5.443l0.029 0.13c-1.692 1.201-3.8 1.92-6.076 1.92-0.006 0-0.013 0-0.019-0h0.001zM24.281 22.667c-0.635-1.907-1.448-3.562-2.45-5.081l0.050 0.080-0.281-0.333c1.46-0.827 3.204-1.32 5.063-1.333l0.004-0c-0.014 2.537-0.912 4.863-2.401 6.686l0.015-0.019z"></path>
</symbol>
<symbol id="icon-uil_ban" viewBox="0 0 32 32">
<path d="M16 2.667c-7.364 0-13.333 5.97-13.333 13.333s5.97 13.333 13.333 13.333v0c7.364 0 13.333-5.97 13.333-13.333s-5.97-13.333-13.333-13.333v0zM16 26.667c-5.891 0-10.667-4.776-10.667-10.667v0c0-0.004 0-0.008 0-0.012 0-2.471 0.849-4.744 2.271-6.543l-0.017 0.022 14.946 14.946c-1.777 1.405-4.050 2.254-6.521 2.254-0.004 0-0.009 0-0.013 0h0.001zM24.413 22.533l-14.946-14.946c1.777-1.405 4.050-2.254 6.521-2.254 0.004 0 0.009 0 0.013 0h-0.001c5.891 0 10.667 4.776 10.667 10.667v0c0 0.004 0 0.008 0 0.012 0 2.471-0.849 4.744-2.271 6.543l0.017-0.022z"></path>
</symbol>
<symbol id="icon-uil_angle-right" viewBox="0 0 32 32">
<path d="M19.773 15.053l-5.653-5.653c-0.242-0.244-0.577-0.395-0.947-0.395-0.736 0-1.333 0.597-1.333 1.333 0 0.001 0 0.002 0 0.003v-0c0 0.352 0.139 0.69 0.387 0.939l4.72 4.721-4.72 4.72c-0.239 0.241-0.387 0.573-0.387 0.94s0.148 0.699 0.388 0.94l-0-0c0.241 0.239 0.573 0.387 0.94 0.387 0.003 0 0.005 0 0.008-0h-0c0.002 0 0.004 0 0.006 0 0.367 0 0.699-0.148 0.94-0.387l5.653-5.653c0.244-0.242 0.395-0.576 0.395-0.947s-0.151-0.705-0.395-0.947l-0-0z"></path>
</symbol>
<symbol id="icon-uil_angle-top" viewBox="0 0 32 32">
<path d="M15.053 12.226l-5.653 5.653c-0.245 0.242-0.396 0.577-0.396 0.948 0 0.736 0.597 1.333 1.333 1.333 0.001 0 0.002 0 0.003 0h-0c0.352 0 0.69-0.139 0.941-0.388l4.72-4.72 4.72 4.72c0.241 0.239 0.573 0.387 0.94 0.387s0.699-0.148 0.94-0.388l-0 0c0.239-0.241 0.387-0.573 0.387-0.939 0-0.003 0-0.005-0-0.007v0c0-0.002 0-0.005 0-0.008 0-0.367-0.148-0.699-0.387-0.94l-5.653-5.653c-0.241-0.244-0.576-0.395-0.947-0.395s-0.705 0.151-0.947 0.395l-0 0z"></path>
</symbol>
<symbol id="icon-uil_angle-left" viewBox="0 0 32 32">
<path d="M15.054 16l4.72-4.72c0.239-0.241 0.387-0.573 0.387-0.94 0-0.737-0.598-1.335-1.335-1.335-0.37 0-0.705 0.151-0.947 0.394l-5.653 5.653c-0.244 0.242-0.394 0.577-0.394 0.947s0.151 0.705 0.394 0.947l0 0 5.653 5.721c0.241 0.239 0.572 0.386 0.938 0.386 0.003 0 0.006 0 0.009-0h-0c0.002 0 0.005 0 0.008 0 0.366 0 0.698-0.147 0.939-0.386l-0 0c0.24-0.241 0.388-0.573 0.388-0.94s-0.148-0.699-0.388-0.94l0 0-4.72-4.786z"></path>
</symbol>
<symbol id="icon-twiter" viewBox="0 0 32 32">
<path fill="#90c1bf" style="fill: var(--color3, #90c1bf)" d="M7.385 0h17.231c4.078 0 7.385 3.306 7.385 7.385v17.231c0 4.078-3.306 7.385-7.385 7.385h-17.231c-4.078 0-7.385-3.306-7.385-7.385v-17.231c0-4.078 3.306-7.385 7.385-7.385z"></path>
<path fill="#fff" style="fill: var(--color1, #fff)" d="M16 10.092c-3.263 0-5.908 2.645-5.908 5.908s2.645 5.908 5.908 5.908c3.263 0 5.908-2.645 5.908-5.908v0c-0.004-3.261-2.646-5.904-5.907-5.908h-0zM16 19.938c-2.175 0-3.938-1.763-3.938-3.938s1.763-3.938 3.938-3.938c2.175 0 3.938 1.763 3.938 3.938v0c-0.002 2.174-1.764 3.936-3.938 3.938h-0zM21.415 3.692h-10.831c-3.805 0.005-6.888 3.088-6.892 6.892v10.831c0.005 3.805 3.088 6.888 6.892 6.892h10.831c3.805-0.005 6.888-3.088 6.892-6.892v-10.831c-0.005-3.805-3.088-6.888-6.892-6.892h-0zM26.338 21.415c-0.003 2.718-2.205 4.92-4.923 4.923h-10.831c-2.718-0.003-4.92-2.205-4.923-4.923v-10.831c0.003-2.718 2.205-4.92 4.923-4.923h10.831c2.718 0.003 4.92 2.205 4.923 4.923v10.831zM23.877 9.6c0 0.816-0.661 1.477-1.477 1.477s-1.477-0.661-1.477-1.477v0c0-0.816 0.661-1.477 1.477-1.477s1.477 0.661 1.477 1.477v0z"></path>
</symbol>
<symbol id="icon-tw" viewBox="0 0 32 32">
<path fill="#90c1bf" style="fill: var(--color3, #90c1bf)" d="M7.385 0h17.231c4.078 0 7.385 3.306 7.385 7.385v17.231c0 4.078-3.306 7.385-7.385 7.385h-17.231c-4.078 0-7.385-3.306-7.385-7.385v-17.231c0-4.078 3.306-7.385 7.385-7.385z"></path>
<path fill="#fff" style="fill: var(--color1, #fff)" d="M24.285 7.27c-1.046-1.105-2.3-2-3.702-2.624l-0.073-0.029c-1.307-0.584-2.832-0.924-4.437-0.924-0.008 0-0.016 0-0.024 0h0.001c-6.417 0-11.642 5.472-11.644 12.198 0 2.15 0.535 4.247 1.554 6.098l-1.651 6.319 6.172-1.697c1.598 0.931 3.516 1.482 5.563 1.486h0.006c6.416 0 11.641-5.472 11.643-12.198 0-0.012 0-0.026 0-0.040 0-1.667-0.323-3.259-0.91-4.716l0.030 0.085c-0.613-1.535-1.468-2.849-2.532-3.961l0.004 0.005zM16.049 26.037h-0.004c-1.734 0-3.435-0.488-4.926-1.414l-0.353-0.22-3.663 1.007 0.977-3.74-0.23-0.383c-0.93-1.534-1.48-3.387-1.48-5.369 0-0.009 0-0.019 0-0.028v0.001c0.002-5.59 4.344-10.138 9.682-10.138 1.271-0.002 2.531 0.258 3.705 0.769 1.226 0.543 2.268 1.286 3.132 2.2l0.004 0.004c0.881 0.921 1.592 2.014 2.077 3.221l0.024 0.068c0.486 1.231 0.734 2.551 0.73 3.883-0.003 5.59-4.344 10.139-9.677 10.139zM21.358 18.443c-0.292-0.154-1.721-0.89-1.988-0.992s-0.46-0.152-0.654 0.152c-0.194 0.305-0.752 0.991-0.922 1.194s-0.34 0.228-0.63 0.076c-0.291-0.152-1.228-0.474-2.34-1.513-0.865-0.808-1.449-1.806-1.618-2.111-0.17-0.306-0.018-0.471 0.129-0.623 0.131-0.135 0.29-0.356 0.436-0.534s0.193-0.304 0.29-0.508c0.097-0.203 0.049-0.382-0.025-0.534-0.073-0.154-0.655-1.654-0.897-2.264-0.235-0.591-0.475-0.512-0.654-0.521-0.15-0.007-0.325-0.011-0.502-0.011-0.019 0-0.038 0-0.057 0h0.003c-0.148 0.004-0.293 0.039-0.426 0.105-0.138 0.069-0.255 0.162-0.349 0.274l-0.001 0.002c-0.266 0.306-1.018 1.042-1.018 2.542s1.043 2.95 1.188 3.154c0.146 0.204 2.052 3.281 4.97 4.602 0.695 0.314 1.237 0.502 1.659 0.643 0.696 0.232 1.33 0.198 1.833 0.121 0.559-0.087 1.721-0.736 1.963-1.448 0.243-0.712 0.243-1.322 0.17-1.45s-0.269-0.206-0.558-0.358z"></path>
</symbol>
<symbol id="icon-telegram" viewBox="0 0 32 32">
<path fill="#90c1bf" style="fill: var(--color3, #90c1bf)" d="M7.385 0h17.231c4.078 0 7.385 3.306 7.385 7.385v17.231c0 4.078-3.306 7.385-7.385 7.385h-17.231c-4.078 0-7.385-3.306-7.385-7.385v-17.231c0-4.078 3.306-7.385 7.385-7.385z"></path>
<path fill="#fff" style="fill: var(--color1, #fff)" d="M24.883 6.897l-20.714 7.937c-1.414 0.564-1.406 1.348-0.26 1.697l5.318 1.649 12.305-7.714c0.582-0.351 1.114-0.162 0.677 0.223l-9.97 8.942-0.367 5.446c0.537 0 0.775-0.244 1.076-0.534l2.583-2.496 5.374 3.944c0.991 0.542 1.702 0.263 1.948-0.911l3.527-16.517c0.361-1.439-0.553-2.090-1.498-1.665z"></path>
</symbol>
<symbol id="icon-line-md_email" viewBox="0 0 32 32">
<path stroke-linejoin="miter" stroke-linecap="round" stroke-miterlimit="4" stroke-width="2.6667" d="M26.667 6.667h-21.333c-0.736 0-1.333 0.597-1.333 1.333v0 16c0 0.736 0.597 1.333 1.333 1.333v0h21.333c0.736 0 1.333-0.597 1.333-1.333v0-16c0-0.736-0.597-1.333-1.333-1.333v0z"></path>
<path stroke-linejoin="miter" stroke-linecap="round" stroke-miterlimit="4" stroke-width="2.6667" d="M4 8.667l12 7.333 12-7.333"></path>
</symbol>
<symbol id="icon-trash" viewBox="0 0 32 32">
<path d="M14.062 1.655c-1.365 0.007-2.469 1.112-2.476 2.475v0.835h-4.966v1.655h1.655v14.069c0.005 1.369 1.114 2.478 2.482 2.483h9.931c1.369-0.005 2.478-1.114 2.483-2.482v-14.069h1.655v-1.655h-4.966v-0.834c-0.007-1.365-1.112-2.469-2.475-2.476h-3.324zM14.062 3.31h3.324c0.005-0 0.010-0 0.016-0 0.445 0 0.806 0.361 0.806 0.806 0 0.005-0 0.011-0 0.016v-0.001 0.834h-4.966v-0.834c-0-0.005-0-0.010-0-0.016 0-0.445 0.361-0.806 0.806-0.806 0.005 0 0.011 0 0.016 0h-0.001zM9.931 6.621h11.586v14.069c0 0.003 0 0.007 0 0.011 0 0.451-0.366 0.817-0.817 0.817-0.004 0-0.008-0-0.012-0h-9.93c-0.003 0-0.007 0-0.011 0-0.451 0-0.817-0.366-0.817-0.817 0-0.004 0-0.008 0-0.012v0.001-14.069zM11.586 8.276v11.586h1.655v-11.586h-1.655zM14.897 8.276v11.586h1.655v-11.586h-1.655zM18.207 8.276v11.586h1.655v-11.586h-1.655z"></path>
</symbol>
<symbol id="icon-Help" viewBox="0 0 32 32">
<path stroke-linejoin="round" stroke-linecap="round" stroke-miterlimit="4" stroke-width="2.6667" d="M16 29.333c7.364 0 13.333-5.969 13.333-13.333s-5.969-13.333-13.333-13.333-13.333 5.969-13.333 13.333 5.969 13.333 13.333 13.333z"></path>
<path stroke-linejoin="round" stroke-linecap="round" stroke-miterlimit="4" stroke-width="2.6667" d="M12.12 12c0.564-1.57 2.040-2.673 3.773-2.673 2.209 0 4 1.791 4 4 0 0.002 0 0.004 0 0.006v-0c0 2.667-4 4-4 4M16 21.333v0.667"></path>
</symbol>

</defs>
</svg>
