<svg width="290" height="47" fill="none" xmlns="http://www.w3.org/2000/svg"><g clip-path="url(#clip0)" fill="#fff"><path d="M82.792 34.678c-.272-.437-.64-.656-1.109-.656-.574 0-1.063.254-1.456.763a16.61 16.61 0 01-5.557 4.496c-2.196 1.11-4.136 1.665-5.829 1.665-2.232 0-3.345-.906-3.345-2.724 0-1.599.71-3.208 2.13-4.827 1.422-1.619 3.875-3.788 7.367-6.517 1.294-1.018 1.94-2.362 1.94-4.032 0-.728-.182-1.273-.54-1.635-.358-.361-.846-.544-1.456-.544-.468 0-1.224.218-2.267.656-.146.036-.458.148-.942.326-.484.183-1.033.346-1.648.489a7.78 7.78 0 01-1.833.219c-1.26 0-2.187-.209-2.776-.626-.595-.418-1.089-1.064-1.482-1.935-.645-1.492-1.778-2.235-3.4-2.235-2.268 0-3.744 1.217-4.424 3.655-.756 2.724-1.486 4.919-2.186 6.569a38.767 38.767 0 01-2.237 4.5c-.781 1.35-1.95 2.918-3.467 4.68-.75.758-1.44 1.364-2.06 1.807-1.134.8-2.293 1.202-3.482 1.202-1.26 0-2.236-.382-2.942-1.146-.7-.764-1.053-1.91-1.053-3.437 0-1.308.182-2.871.54-4.689l3.29-15.595c.609-2.689.987-5.306 1.133-7.852l5.451.708c.217.036.519.056.917.056 1.078 0 1.89-.28 2.428-.845.54-.565.812-1.39.812-2.48 0-.728-.242-1.37-.726-1.934-.484-.566-1.285-.937-2.403-1.12C43.414.544 36.506 0 29.458 0 22.662 0 17.11.438 12.812 1.309c-4.298.87-7.507 2.245-9.633 4.119C1.063 7.296 0 9.78 0 12.866c0 1.457.232 2.755.7 3.9.469 1.146 1.058 2.027 1.779 2.643.398.361.897.545 1.511.545.862 0 1.683-.3 2.454-.902.77-.6 1.159-1.262 1.159-1.99 0-.397-.091-.728-.273-.983-.61-.947-.916-2.052-.916-3.325 0-1.563.745-2.8 2.236-3.706 1.492-.907 3.91-1.563 7.255-1.96l-.539 2.616a565.73 565.73 0 00-1.617 8.29 283.6 283.6 0 00-1.511 8.833 136.252 136.252 0 01-.917 5.78c-.358 2.22-.675 4.332-.942 6.354-.272 2.016-.403 3.462-.403 4.332 0 .947.322 1.711.972 2.292.65.58 1.567.87 2.75.87 1.114 0 2.066-.28 2.862-.845.791-.565 1.225-1.37 1.295-2.429.146-2 .433-4.623.862-7.876.433-3.254.846-6.115 1.239-8.59a793.693 793.693 0 013.668-20.121c.861-.036 2.267-.056 4.207-.056 3.24 0 6.04.056 8.418.162-.146 1.854-.72 5.29-1.728 10.306l-1.995 9.98c-.856 4.291-1.29 7.402-1.29 9.327 0 3.09.847 5.555 2.535 7.388 1.687 1.838 4.065 2.754 7.123 2.754 2.051 0 3.986-.524 5.8-1.583 1.813-1.054 3.642-2.724 5.476-5.015.055-.067.096-.148.146-.224.428-.469.841-.932 1.23-1.385 1.133-1.324 2.347-3.045 3.642-5.153 1.436-2.327 2.61-5.524 3.506-9.598.469 1.238 1.124 2.164 1.97 2.78.847.616 1.844.927 2.993.927.972 0 1.778-.127 2.428-.382-3.022 2.108-5.335 4.099-6.932 5.973-1.602 1.873-2.403 4.042-2.403 6.517 0 2.546.8 4.46 2.403 5.753C62.755 46.353 65.083 47 68.14 47c2.554 0 5.108-.626 7.663-1.879a17.5 17.5 0 006.368-5.26c.68-.906 1.023-2.036 1.023-3.38 0-.769-.136-1.37-.403-1.803z"/><path d="M103.941 35.223c.273.438.404 1.034.404 1.798 0 1.456-.343 2.581-1.023 3.38-1.33 1.635-3.21 3.147-5.638 4.527C95.256 46.308 92.656 47 89.89 47c-3.778 0-6.71-1.034-8.796-3.106-2.086-2.072-3.13-4.908-3.13-8.508 0-2.51.52-4.842 1.568-7.006 1.043-2.164 2.489-3.88 4.343-5.152 1.854-1.273 3.944-1.91 6.287-1.91 2.086 0 3.759.627 5.018 1.879 1.26 1.253 1.89 2.953 1.89 5.097 0 2.51-.892 4.664-2.67 6.46-1.78 1.798-4.792 3.229-9.04 4.283.898 1.67 2.61 2.51 5.125 2.51 1.617 0 3.46-.57 5.531-1.716a18.368 18.368 0 005.371-4.496c.433-.509.917-.764 1.456-.764.459-.005.826.214 1.098.652zM82.55 16.766c-.65-.636-.973-1.624-.973-2.973 0-1.451.388-2.592 1.159-3.406.77-.82 1.809-1.227 3.103-1.227 1.15 0 2.051.32 2.696.952.645.636.972 1.63.972 2.973 0 1.456-.388 2.592-1.159 3.406-.775.82-1.808 1.227-3.103 1.227-1.154 0-2.05-.315-2.695-.952zm3.315 12.24c-.917 1.564-1.376 3.453-1.376 5.672v.107c2.121-.509 3.794-1.272 5.018-2.29 1.224-1.02 1.834-2.2 1.834-3.544 0-.693-.186-1.243-.564-1.666-.378-.417-.892-.626-1.537-.626-1.335.005-2.458.784-3.375 2.348zm7.904-12.24c-.644-.636-.972-1.624-.972-2.973 0-1.451.388-2.592 1.159-3.406.77-.82 1.809-1.227 3.103-1.227 1.15 0 2.05.32 2.696.952.65.636.972 1.63.972 2.973 0 1.456-.388 2.592-1.159 3.406-.775.82-1.808 1.227-3.103 1.227-1.149 0-2.046-.315-2.696-.952z"/><path d="M132.911 35.223c.267.438.403 1.034.403 1.798 0 1.456-.343 2.581-1.023 3.38-1.189 1.416-2.222 2.556-3.103 3.407-.882.855-1.96 1.598-3.24 2.235-1.275.636-2.726.952-4.343.952-2.121 0-3.632-.845-4.534-2.536-.897-1.69-1.35-4.24-1.35-7.662 0-1.706.07-3.36.216-4.965h-.105c-1.441 4.837-3.21 8.56-5.316 11.176-2.106 2.617-4.504 3.926-7.204 3.926-1.834 0-3.275-.672-4.318-2.016-1.043-1.344-1.567-3.035-1.567-5.072 0-1.817.413-3.289 1.24-4.414.826-1.125 1.995-1.69 3.506-1.69.685 0 1.194.147 1.537.438.342.29.478.692.403 1.201-.287 1.747-.433 2.943-.433 3.6 0 1.308.322 1.965.972 1.965.358 0 .766-.275 1.214-.82.449-.544 1.214-1.873 2.292-3.981a96.551 96.551 0 002.565-5.397 94.902 94.902 0 002.186-5.341c.575-1.528 1.24-2.571 1.996-3.137.755-.565 1.833-.845 3.239-.845 1.365 0 2.373.275 3.023.82.645.545.972 1.436.972 2.673l-.105 4.033c-.147 3.054-.217 5.254-.217 6.598 0 3.819.771 5.723 2.317 5.723.65 0 1.285-.31 1.915-.926.63-.617 1.607-1.747 2.942-3.381l1.35-1.635c.434-.509.917-.763 1.456-.763.474 0 .847.218 1.114.656z"/><path d="M130.538 44.821c-.559-1.451-.836-3.778-.836-6.98 0-4.725.665-9.216 1.995-13.468.323-1.053.852-1.827 1.592-2.316.736-.489 1.774-.738 3.104-.738.72 0 1.224.091 1.511.274.287.184.434.53.434 1.034 0 .58-.268 1.89-.812 3.926-.07.254-.226.835-.458 1.746a35.18 35.18 0 00-.645 3.187 36.539 36.539 0 00-.403 4.007c1.295-5.086 2.932-8.721 4.912-10.906 1.98-2.179 4.368-3.273 7.174-3.273 1.87 0 3.336.59 4.399 1.771 1.058 1.182 1.592 2.699 1.592 4.552 0 1.528-.333 2.816-.998 3.87-.665 1.054-1.536 1.583-2.615 1.583-.685 0-1.234-.163-1.647-.489-.413-.325-.62-.779-.62-1.364 0-.255.036-.545.106-.87.071-.327.126-.566.161-.709a4.833 4.833 0 00.272-1.527c0-.983-.468-1.471-1.4-1.471-.721 0-1.421.371-2.106 1.115-.685.743-1.235 1.746-1.648 2.999-.413 1.252-.619 2.606-.619 4.063 0 1.96.448 3.533 1.35 4.714.897 1.182 2.191 1.772 3.884 1.772 1.33 0 2.519-.443 3.562-1.334 1.043-.89 2.484-2.444 4.318-4.664.433-.509.917-.763 1.456-.763.469 0 .836.219 1.108.657.272.437.403 1.033.403 1.797 0 1.456-.342 2.581-1.022 3.38-1.618 1.966-3.24 3.554-4.857 4.771s-3.451 1.828-5.502 1.828c-1.693 0-3.229-.371-4.615-1.12-1.385-.743-2.509-1.645-3.37-2.699-.862-1.053-1.421-2.072-1.673-3.054a241.9 241.9 0 01-.811 3.054c-.398 1.457-.856 2.455-1.375 3-.524.544-1.32.82-2.404.82-1.38.004-2.337-.724-2.897-2.175zM238.505 35.223c.272.438.403 1.034.403 1.798 0 1.456-.343 2.581-1.028 3.38-1.652 1.925-3.355 3.509-5.098 4.746-1.743 1.237-3.734 1.853-5.96 1.853-1.729 0-3.003-.682-3.829-2.047-.827-1.364-1.225-3.243-1.189-5.641-.61 2.474-1.527 4.374-2.751 5.697-1.224 1.33-2.534 1.991-3.94 1.991-3.275 0-4.912-1.965-4.912-5.89 0-.693.055-1.416.161-2.18-1.078 2.617-2.232 4.618-3.451 5.998-1.224 1.38-2.645 2.072-4.262 2.072-1.618 0-2.943-.753-3.965-2.26-1.023-1.508-1.537-3.392-1.537-5.642 0-2.724.181-5.224.539-7.495.358-2.27.952-4.679 1.779-7.225.357-1.09.861-1.873 1.511-2.342.645-.473 1.673-.707 3.073-.707.791 0 1.34.127 1.648.381.307.255.458.637.458 1.146 0 .29-.196 1.273-.594 2.943a55.272 55.272 0 00-.862 3.656c-.72 3.818-1.078 6.359-1.078 7.632 0 .764.091 1.298.272 1.609.181.31.469.463.862.463 1.189 0 2.347-1.354 3.481-4.063 1.133-2.709 2.363-6.278 3.698-10.712.322-1.09.7-1.828 1.133-2.21.434-.382 1.225-.57 2.373-.57.938 0 1.582.152 1.945.463.358.31.539.845.539 1.609 0 .728-.252 2.49-.755 5.29-.721 4.216-1.079 6.924-1.079 8.126 0 .764.091 1.298.272 1.609.182.31.469.463.862.463.539 0 1.214-.544 2.025-1.634.811-1.09 1.673-2.744 2.59-4.964.917-2.215 1.809-4.944 2.67-8.177.287-1.09.731-1.874 1.32-2.342.595-.474 1.481-.708 2.67-.708.827 0 1.401.102 1.728.3.323.199.484.57.484 1.12 0 .912-.448 3.401-1.35 7.47-1.008 4.653-1.512 7.525-1.512 8.614 0 .693.141 1.228.434 1.61.287.381.665.57 1.133.57.721 0 1.572-.443 2.565-1.334.987-.891 2.312-2.337 3.965-4.333.433-.51.917-.764 1.456-.764.463-.025.831.194 1.103.631z"/><path d="M263.132 30.697c.252.473.378 1.074.378 1.797 0 1.746-.524 2.78-1.567 3.106-2.157.764-4.535 1.201-7.124 1.308-.685 3.055-2.03 5.5-4.046 7.332-2.015 1.838-4.297 2.755-6.852 2.755-2.156 0-4-.525-5.531-1.584-1.527-1.054-2.691-2.454-3.482-4.2-.791-1.747-1.189-3.636-1.189-5.672 0-2.76.519-5.224 1.567-7.388 1.043-2.164 2.484-3.854 4.318-5.071 1.834-1.217 3.864-1.828 6.096-1.828 2.731 0 4.937.952 6.61 2.861 1.673 1.91 2.65 4.262 2.942 7.062 1.693-.107 3.703-.473 6.041-1.09.287-.07.539-.106.756-.106.473.01.831.244 1.083.718zm-15.78 9.103c.847-.947 1.411-2.306 1.698-4.088a7.522 7.522 0 01-2.564-2.999 8.944 8.944 0 01-.892-3.926c0-.58.056-1.16.161-1.746h-.267c-1.441 0-2.635.703-3.587 2.098-.952 1.4-1.431 3.37-1.431 5.916 0 2.001.388 3.529 1.159 4.583.771 1.053 1.683 1.583 2.726 1.583 1.153 0 2.151-.473 2.997-1.42z"/><path d="M259.817 44.82c-.559-1.45-.837-3.777-.837-6.98 0-4.725.666-9.215 1.996-13.467.322-1.054.851-1.828 1.592-2.316.735-.49 1.773-.739 3.103-.739.721 0 1.224.092 1.512.275.287.184.433.53.433 1.034 0 .58-.267 1.889-.811 3.925a87.669 87.669 0 00-.862 3.82c-.216 1.094-.398 2.433-.539 4.032 1.189-3.127 2.519-5.672 3.99-7.633 1.476-1.965 2.922-3.36 4.343-4.2 1.421-.835 2.726-1.253 3.91-1.253 2.337 0 3.506 1.182 3.506 3.544 0 1.416-.398 3.982-1.189 7.688-.685 3.162-1.022 5.255-1.022 6.273 0 1.456.518 2.18 1.566 2.18.721 0 1.572-.444 2.565-1.335.987-.89 2.312-2.337 3.965-4.333.433-.509.917-.763 1.456-.763.468 0 .836.219 1.103.656.272.438.403 1.034.403 1.798 0 1.456-.342 2.581-1.028 3.38-1.546 1.925-3.209 3.509-4.992 4.746-1.779 1.237-3.804 1.853-6.071 1.853-1.834 0-3.22-.534-4.157-1.609-.937-1.074-1.4-2.627-1.4-4.664 0-1.018.252-2.836.755-5.453.469-2.29.701-3.87.701-4.745 0-.58-.197-.87-.595-.87-.468 0-1.123.61-1.97 1.827-.846 1.217-1.708 2.826-2.589 4.827a37.809 37.809 0 00-2.131 6.324c-.398 1.71-.857 2.861-1.376 3.462-.524.6-1.34.901-2.453.901-1.361-.005-2.323-.733-2.877-2.184zM182.23 19.821c-3.975-.488-6.983 2.292-9.059 4.084-2.756 2.383-5.421 8.146-4.554 12.296.675 3.243 3.461 6.227 6.66 6.965 4.252.983 7.492-.641 9.26-1.751 1.34-.84 5.784-4.415 5.764-7.546-.101-15.504-2.736-13.39-8.071-14.048zm3.204 7.062c-1.174 0-2.126-1.232-2.126-2.75 0-1.516.952-2.748 2.126-2.748s2.126 1.232 2.126 2.749c0 1.517-.952 2.75-2.126 2.75zM177.191 15.453c.464-3.172-1.622-7.143-5.194-7.286-4.156-.168-5.728 5.137-4.806 7.556 1.299 3.401 4.514 7.179 5.189 6.97 1.048-.326 4.408-4.48 4.811-7.24zM167.302 19.715c-2.011-.423-4.756.152-4.852 3.116-.101 3.268 3.476 3.594 4.645 3.416 1.668-.255 3.325-1.604 4.449-2.892a.348.348 0 00-.015-.463c-.66-.713-2.771-2.872-4.227-3.177z"/><path d="M173.544 40.93c-2.877-1.98-4.514-5.035-4.922-7.769-.051.194-.111.382-.162.575-.539 2.18-.619 6.894.227 7.699.6.57 4.917 2.006 7.562 2.082.645.02 1.194 0 1.713-.046-1.375-.595-2.594-1.283-4.418-2.54zM179.075 35.564c-3.768-3.39-4.468-4.765-5.143-8.497-.288-1.574.005-3.01.181-4.043-1.119.977-2.076 2.016-2.862 3.121-.146.845-1.511 4.74 2.202 9.49 3.789 4.853 8.232 6.024 9.87 6.508.76-.413 1.496-.886 2.206-1.451.509-.403.988-.82 1.436-1.243-1.38-.28-4.922-1.212-7.89-3.885z"/><path d="M191.943 28.543c-.086-2.108-.781-4.007-2.086-5.687-1.26-1.624-2.761-2.683-4.504-3.172-1.743-.489-3.527-.479-5.346.03-.912.255-1.788.601-2.635 1.039-.196 1.4-.559 5.906 2.247 9.18 2.887 3.37 8.303 6.059 9.905 6.517.338-.504.64-1.018.912-1.543 1.089-2.133 1.592-4.256 1.507-6.364zm-5.567-3.875c-.419.24-.917.016-1.305-.27-.555-.402-1.038-.127.448-1.267.227-.173.952-.092 1.189.336a.885.885 0 01-.332 1.201zM192.855 46.822s-2.519-2.408-1.048-7.872c.695-2.58 3.254-4.617 3.254-4.617s-2.806.687-4.841 3.406c-2.403 3.207-2.801 5.672-2.927 6.38-.126.707-.897.274-.277-1.482.262-.749.478-1.293.478-1.293s-1.809.967-2.489 2.204c-.776 1.41-.866 1.884-.866 2.337 0 .453.04-.804-.716-1.685-.413-.484-1.43-.723-1.43-.723s.695.743.715 1.426c.04 1.44-.796 1.624-.796 1.624s-.746.275-.988-.688c-.322-1.288-2.121-1.013-2.121-1.013s.686.26.555 1.227c-.126.968-1.32.693-1.32.693l12.212.071h2.605v.005z"/><path d="M163.256 46.822s2.519-2.408 1.047-7.872c-.695-2.58-3.254-4.617-3.254-4.617s2.806.687 4.841 3.406c2.404 3.207 2.802 5.672 2.928 6.38.126.707.896.274.277-1.482-.262-.749-.479-1.293-.479-1.293s1.809.967 2.489 2.204c.776 1.41.867 1.884.867 2.337 0 .453-.041-.804.715-1.685.413-.484 1.431-.723 1.431-.723s-.695.743-.716 1.426c-.04 1.44.796 1.624.796 1.624s.746.275.988-.688c.322-1.288 2.121-1.013 2.121-1.013s-.685.26-.554 1.227c.126.968 1.32.693 1.32.693l-12.213.071h-2.604v.005z"/></g><defs><clipPath id="clip0"><path fill="#fff" d="M0 0h290v47H0z"/></clipPath></defs></svg>